<?xml version="1.0" encoding="UTF-8"?>
<svg xmlns="http://www.w3.org/2000/svg" viewBox="0 0 456 456">
  <defs>
    <style>.d{fill:#050706;}.e{fill:#ffef00;}.f{fill:#0c7976;}</style>
  </defs>
  <g id="a" />
  <g id="b">
    <g id="c">
      <rect class="e" x="66.78" y="66.78" width="322.44" height="322.44" transform="translate(-94.44 228) rotate(-45)" />
      <path class="d" d="M282,98c-72.35,0-131,58.65-131,131s58.65,131,131,131,131-58.65,131-131-58.65-131-131-131Zm0,180c-27.06,0-49-21.94-49-49s21.94-49,49-49,49,21.94,49,49-21.94,49-49,49Z" />
      <path class="f" d="M246.85,88.3l26.15-57.3h-84L119.74,182.73l-16.74-101.73H19l39,237h84l10.67-23.38c-10.02-19.71-15.67-42-15.67-65.62,0-67.96,46.75-124.99,109.85-140.7Z" />
    </g>
  </g>
</svg>